#N canvas 77 320 1221 350 10;
#X declare -lib mrpeach;
#N canvas 325 49 1370 972 Delay 0;
#X obj 114 43 inlet~;
#X obj 235 455 outlet~;
#X obj 433 463 outlet~;
#X obj 440 84 *~ 0.5;
#X obj 114 165 delwrite~ delayname 500;
#X obj 253 205 *~ 0.3;
#X obj 115 289 *~ 0.2;
#X obj 236 386 *~;
#X obj 433 387 *~;
#X obj 298 255 vsl 15 128 0 2 0 0 empty empty empty 0 -9 0 10 -262144
-1 -1 8255 1;
#X floatatom 300 407 5 0 0 0 - - -;
#X obj 332 199 loadbang;
#X obj 362 164 bng 15 250 50 0 empty empty empty 17 7 0 10 -262144
-1 -1;
#X msg 332 228 1.3;
#X obj 115 251 delread~ delayname 180;
#X connect 0 0 3 0;
#X connect 0 0 4 0;
#X connect 3 0 8 0;
#X connect 5 0 4 0;
#X connect 6 0 7 0;
#X connect 7 0 1 0;
#X connect 8 0 2 0;
#X connect 9 0 8 1;
#X connect 9 0 7 1;
#X connect 9 0 10 0;
#X connect 11 0 13 0;
#X connect 12 0 11 0;
#X connect 13 0 9 0;
#X connect 14 0 5 0;
#X connect 14 0 6 0;
#X restore 544 458 pd Delay;
#X obj 505 419 spigot~;
#X obj 504 533 spigot~;
#X obj 505 284 spigot~;
#N canvas 1640 56 1920 1038 WahWah 0;
#X obj 110 110 cnv 15 250 150 empty empty AutoWah 90 12 0 14 -108187
-262144 0;
#X obj 237 239 tgl 15 0 Autowah_Sine bang_Autowah_Sine Sin 0 -5 0 10
-262144 -1 -262144 1 1;
#X obj 122 172 knob 32 32 0 5 0 0 Autowah_Velocity bang_Autowah_Velocity
Velocity 0 -8 0 8 -1 -262144 -262144 710 1;
#X obj 191 172 knob 32 32 1000 1500 0 0 Autowah_Range bang_Autowah_Range
Range 0 -8 0 8 -1 -262144 -262144 3100 1;
#X obj 331 114 tgl 15 0 AutoWah_OnnOff empty ON/Off -10 22 0 10 -262144
-1 -262144 0 1;
#X obj 174 239 tgl 15 0 Autowah_Triangle bang_Autowah_Triangle Tri
0 -5 0 10 -262144 -1 -262144 0 1;
#X obj 253 173 knob 32 32 0 20 0 0 Autowah_Q bang_Autowah_Q Q 10 -7
0 10 -1 -262144 -262144 899 1;
#X obj 155 529 env~;
#X obj 155 551 dbtorms;
#X obj 158 574 hsl 100 15 0 1 0 0 empty empty empty -2 -8 0 10 -262144
-1 -1 5289 1;
#X text 246 608 Frequency range;
#X text 169 657 Offset;
#X obj 124 656 +~ 200;
#X obj 581 662 loadbang;
#X obj 124 376 r Autowah_Velocity;
#X obj 627 27 r Autowah_Triangle;
#X obj 519 27 r Autowah_Sine;
#X obj 627 69 moses 1;
#X msg 666 122 0;
#X obj 519 72 moses 1;
#X msg 558 125 0;
#X text 566 636 Start Values;
#N canvas 254 250 787 504 Sin 0;
#X obj 55 323 outlet~;
#X obj 91 210 inlet;
#X obj 52 254 spigot~;
#X obj 52 45 inlet;
#X obj 52 87 osc~ 2;
#X obj 52 127 +~ 1;
#X obj 52 167 *~ 0.5;
#X connect 1 0 2 1;
#X connect 2 1 0 0;
#X connect 3 0 4 0;
#X connect 4 0 5 0;
#X connect 5 0 6 0;
#X connect 6 0 2 0;
#X restore 304 440 pd Sin;
#X obj 157 410 r Autowah_Triangle;
#X obj 124 499 *~ 1;
#X obj 337 411 r Autowah_Sine;
#N canvas 663 154 1115 709 Tri 0;
#N canvas 0 0 450 300 (subpatch) 0;
#X array triangle 100 float 0;
#X coords 0 1 100 -1 200 100 1 0 0;
#X restore 36 38 graph;
#X obj -218 484 outlet~;
#X obj -119 288 metro 500;
#X obj -54 273 bng 15 250 50 0 empty empty empty 17 7 0 10 -262144
-1 -1;
#X text -288 224 Amplitude;
#X text -307 96 Sägezahn 0 1;
#X obj -145 163 *~ -1;
#X text -94 159 Spiegeln X;
#X text -92 187 Verschieben in Y;
#X obj -145 191 +~ 0.5;
#X obj -221 58 inlet;
#X obj -182 371 inlet;
#X obj -220 225 *~ 2;
#X obj -119 317 tabwrite~ triangle;
#X floatatom -309 43 5 0 0 0 - - -;
#X text 35 151 phasor Erzeugt eine Sägezahn förmige Welle (0.0001
.....1) wenn 1 errteicht wird => fängt der Generator wieder von vorne
an.;
#X text 34 203 Expression (expr~ $v1>0.5) returns 1 wenn die Rampenwerte
>= 0.5 returns 0 wenn die Werte < 0.5;
#X text 35 247 durch [*~ 2] und [-~ 1] wird das signal im Bereich -1
1 oscillieren;
#X obj -221 415 spigot~;
#X obj -220 132 min~ 0.5;
#X obj -146 132 max~ 0.5;
#X obj -220 96 phasor~ 2;
#X connect 2 0 13 0;
#X connect 3 0 2 0;
#X connect 6 0 9 0;
#X connect 9 0 12 0;
#X connect 10 0 21 0;
#X connect 11 0 18 1;
#X connect 12 0 13 0;
#X connect 12 0 18 0;
#X connect 14 0 21 0;
#X connect 18 1 1 0;
#X connect 19 0 12 0;
#X connect 20 0 6 0;
#X connect 21 0 19 0;
#X connect 21 0 20 0;
#X restore 124 439 pd Tri;
#X obj 139 609 r Autowah_Range;
#X obj 124 634 *~;
#X obj 113 731 vcf~;
#X obj 72 345 spigot~;
#X obj 183 328 r AutoWah_OnnOff;
#X msg 381 679 1;
#X obj 113 794 *~;
#X obj 312 172 knob 32 32 1 8 0 0 Autowah_Volume Bang_Autowah_Volume
Volume 0 -7 0 10 -1 -262144 -262144 2100 1;
#X obj 128 769 r Autowah_Volume;
#X text 599 1 Switch Tri and Sin;
#X obj 134 700 r Autowah_Q;
#X obj 512 756 s bang_Autowah_Velocity;
#X obj 581 733 s bang_Autowah_Range;
#X obj 716 728 s bang_Autowah_Q;
#X obj 666 167 s bang_Autowah_Sine;
#X obj 558 189 s bang_Autowah_Triangle;
#X obj 273 752 s Bang_Autowah_Volume;
#X obj 381 729 s bang_Autowah_Sine;
#X floatatom 194 211 5 0 0 0 - - -;
#X floatatom 256 211 5 0 0 0 - - -;
#X floatatom 315 210 5 0 0 0 - - -;
#X floatatom 125 210 5 0 0 0 - - -;
#X obj 258 366 r brain;
#X obj 693 629 bng 15 250 50 0 empty empty empty 17 7 0 10 -262144
-1 -1;
#X obj 71 281 inlet~;
#X obj 331 59 inlet enableWah;
#X msg 512 679 1.145;
#X obj 90 316 *~ 5;
#X obj 132 826 *~ 0.7;
#X obj 136 897 *~ 0.3;
#X obj 107 871 *~ 0.1;
#X msg 273 679 5.741;
#X msg 581 699 1500;
#X msg 715 679 5.8;
#X obj 119 63 + 1;
#X obj 189 10 + 1200;
#X obj 119 -7 inlet BCI;
#X obj 119 34 / 50;
#X obj 108 926 *~ 1;
#X obj 122 979 outlet~;
#X obj 59 854 *~ 0.8;
#X connect 2 0 48 0;
#X connect 3 0 45 0;
#X connect 6 0 46 0;
#X connect 7 0 8 0;
#X connect 8 0 9 0;
#X connect 12 0 29 1;
#X connect 13 0 53 0;
#X connect 13 0 59 0;
#X connect 13 0 32 0;
#X connect 13 0 58 0;
#X connect 13 0 60 0;
#X connect 14 0 26 0;
#X connect 14 0 22 0;
#X connect 15 0 17 0;
#X connect 16 0 19 0;
#X connect 17 1 18 0;
#X connect 18 0 41 0;
#X connect 19 1 20 0;
#X connect 20 0 42 0;
#X connect 22 0 24 0;
#X connect 23 0 26 1;
#X connect 24 0 7 0;
#X connect 24 0 28 0;
#X connect 25 0 22 1;
#X connect 26 0 24 0;
#X connect 27 0 28 1;
#X connect 28 0 12 0;
#X connect 29 0 33 0;
#X connect 30 0 57 0;
#X connect 30 1 29 0;
#X connect 31 0 30 1;
#X connect 32 0 44 0;
#X connect 33 0 55 0;
#X connect 34 0 47 0;
#X connect 35 0 33 1;
#X connect 37 0 29 2;
#X connect 50 0 13 0;
#X connect 51 0 54 0;
#X connect 51 0 57 0;
#X connect 51 0 67 0;
#X connect 52 0 4 0;
#X connect 53 0 38 0;
#X connect 54 0 30 0;
#X connect 55 0 57 0;
#X connect 56 0 65 0;
#X connect 57 0 56 0;
#X connect 57 0 65 0;
#X connect 58 0 43 0;
#X connect 59 0 39 0;
#X connect 60 0 40 0;
#X connect 61 0 2 0;
#X connect 62 0 3 0;
#X connect 63 0 62 0;
#X connect 63 0 64 0;
#X connect 64 0 61 0;
#X connect 65 0 66 0;
#X connect 67 0 65 0;
#X restore 545 349 pd WahWah;
#X obj 570 289 r attention;
#N canvas 464 46 1257 877 Tube 0;
#X obj 242 -357 vsl 15 128 0.1 1 0 0 empty empty empty 0 -9 0 10 -262144
-1 -1 8297 1;
#X obj 584 -260 vsl 15 128 -0.8 -0.09 0 0 empty empty empty 0 -9 0
10 -262144 -1 -1 3756 1;
#X obj 386 -288 vsl 15 128 -5 0.5 0 0 empty empty empty 0 -9 0 10 -262144
-1 -1 1524 1;
#X text 440 -179 Q;
#X obj 105 5 -~;
#X obj 165 51 * -1;
#X obj 105 130 exp~ \$1;
#X obj 104 171 *~ -1;
#X obj 104 214 +~ 1;
#X obj 348 106 exp~ \$1;
#X obj 348 150 *~ -1;
#X obj 348 193 +~ 1;
#X obj 220 270 +~;
#X floatatom 594 -77 5 0 0 0 - - -;
#X floatatom 397 -143 5 0 0 0 - - -;
#X obj 106 68 *~;
#X obj 62 245 /~;
#X obj 348 64 *;
#X obj 267 226 /~;
#X obj 121 -128 abs~ \$1;
#X obj 121 -95 max~ \$1;
#X obj 224 -92 *~;
#X obj 106 -50 /~;
#X text 271 -248 Gain;
#X text 83 -18 q;
#X text 120 31 q-Q;
#X floatatom 272 -212 5 0 0 0 - - -;
#X obj 509 193 bng 15 250 50 0 empty empty empty 17 7 0 10 -262144
-1 -1;
#X obj 116 -209 /~ 64;
#X obj 290 314 moog~;
#X obj 365 272 sig~;
#X obj 378 296 * 4;
#X obj 365 249 + 1000;
#X obj 365 225 * 6000;
#X obj 754 -176 vsl 15 128 0 1 0 0 empty empty empty 0 -9 0 10 -262144
-1 -1 5588 1;
#X obj 666 -174 vsl 15 128 0 0.6 0 0 empty empty empty 0 -9 0 10 -262144
-1 -1 7789 1;
#X text 650 -34 filterQ;
#X text 755 -35 Q;
#X obj 342 381 *~;
#X obj 1058 -269 vsl 15 128 0 1 0 0 empty empty empty 0 -9 0 10 -262144
-1 -1 889 1;
#X text 1059 -128 volume;
#X obj 261 -159 * 10;
#X floatatom 808 -7 5 0 0 0 - - -;
#X floatatom 714 3 5 0 0 0 - - -;
#X floatatom 1130 -121 5 0 0 0 - - -;
#X obj 635 -527 loadbang;
#X msg 810 -466 0.07;
#X obj 956 -502 bng 15 250 50 0 empty empty empty 17 7 0 10 -262144
-1 -1;
#X msg 470 -468 0.688;
#X msg 516 -468 -4.34;
#X msg 575 -466 -0.59;
#X obj 79 -499 inlet~;
#X obj 347 427 outlet~;
#X obj 410 425 outlet~;
#X obj 117 -166 hip~ 1200;
#X obj 154 -200 lop~ 4000;
#X obj 96 -466 env~;
#X obj 96 -439 dbtorms;
#X obj 99 -416 hsl 100 15 0 0.2 0 0 empty empty empty -2 -8 0 10 -262144
-1 -1 0 1;
#X obj 79 -284 spigot~;
#X floatatom 97 -331 5 0 0 0 - - -;
#X obj 96 -394 * 1000;
#X msg 626 -470 0.368;
#X msg 689 -470 0.44;
#X obj 96 -361 > 0.05;
#X connect 0 0 26 0;
#X connect 0 0 41 0;
#X connect 1 0 13 0;
#X connect 1 0 17 1;
#X connect 1 0 5 0;
#X connect 2 0 4 1;
#X connect 2 0 17 0;
#X connect 2 0 18 0;
#X connect 2 0 14 0;
#X connect 4 0 16 0;
#X connect 4 0 15 0;
#X connect 5 0 15 1;
#X connect 6 0 7 0;
#X connect 7 0 8 0;
#X connect 8 0 16 1;
#X connect 9 0 10 0;
#X connect 10 0 11 0;
#X connect 11 0 18 1;
#X connect 12 0 29 0;
#X connect 15 0 6 0;
#X connect 16 0 12 0;
#X connect 17 0 9 0;
#X connect 18 0 12 1;
#X connect 19 0 20 0;
#X connect 20 0 22 1;
#X connect 21 0 22 0;
#X connect 22 0 4 0;
#X connect 29 0 38 0;
#X connect 30 0 29 1;
#X connect 31 0 29 2;
#X connect 32 0 30 0;
#X connect 33 0 32 0;
#X connect 34 0 31 0;
#X connect 34 0 42 0;
#X connect 35 0 33 0;
#X connect 35 0 43 0;
#X connect 38 0 52 0;
#X connect 38 0 53 0;
#X connect 39 0 38 1;
#X connect 39 0 44 0;
#X connect 41 0 21 1;
#X connect 45 0 48 0;
#X connect 45 0 49 0;
#X connect 45 0 50 0;
#X connect 45 0 62 0;
#X connect 45 0 63 0;
#X connect 45 0 46 0;
#X connect 46 0 39 0;
#X connect 47 0 45 0;
#X connect 48 0 0 0;
#X connect 49 0 2 0;
#X connect 50 0 1 0;
#X connect 51 0 56 0;
#X connect 51 0 59 0;
#X connect 54 0 19 0;
#X connect 54 0 21 0;
#X connect 55 0 54 0;
#X connect 56 0 57 0;
#X connect 57 0 58 0;
#X connect 58 0 61 0;
#X connect 59 1 28 0;
#X connect 59 1 54 0;
#X connect 60 0 59 1;
#X connect 61 0 64 0;
#X connect 62 0 35 0;
#X connect 63 0 34 0;
#X connect 64 0 60 0;
#X restore 505 220 pd Tube Distortion;
#X obj 528 -4 unpackOSC;
#X obj 528 -31 udpreceive 7400;
#X text 634 -34 <--- OSC Empfang über localhost port 7400;
#X text 606 -4 <-- die Verschiedenen OSC bfehle entpacken;
#X obj 782 64 routeOSC /play;
#X obj 887 63 routeOSC /stop;
#X obj 307 64 routeOSC /attention;
#X floatatom 782 90 5 0 0 0 - - -;
#X floatatom 887 90 5 0 0 0 - - -;
#X floatatom 307 90 5 0 0 0 - - -;
#X obj 307 115 s attention;
#X obj 675 117 s EN_Wah;
#X obj 549 118 s EN_Flanger;
#X obj 442 117 s EN_Delay;
#X obj 544 246 r EN_Wah;
#X obj 543 496 r EN_Flanger;
#X obj 544 382 r EN_Delay;
#X obj 504 151 adc~;
#X obj 502 799 dac~;
#X obj 503 633 *~;
#X obj 706 502 vsl 15 128 0 10 0 0 empty empty empty 0 -9 0 10 -262144
-1 -1 434 1;
#X floatatom 728 633 5 0 0 0 - - -;
#X obj 706 453 loadbang;
#X obj 706 431 bng 15 250 50 0 empty empty empty 17 7 0 10 -262144
-1 -1;
#X msg 706 476 0.342;
#X obj 596 310 r EN_Wah;
#X obj 845 537 readsf~;
#X msg 800 520 start;
#X msg 902 520 stop;
#X obj 800 429 t g g;
#X obj 800 401 bng 15 250 50 0 empty empty empty 17 7 0 10 -262144
-1 -1;
#X obj 902 498 bng 15 250 50 0 empty empty empty 17 7 0 10 -262144
-1 -1;
#X obj 845 781 *~;
#X obj 888 650 vsl 15 128 0 1 0 0 empty empty empty 0 -9 0 10 -262144
-1 -1 3391 1;
#X floatatom 890 791 5 0 0 0 - - -;
#X obj 888 596 loadbang;
#X obj 887 573 bng 15 250 50 0 empty empty empty 17 7 0 10 -262144
-1 -1;
#X obj 887 115 s Stop;
#X obj 782 113 s Play;
#X obj 800 368 r Play;
#X obj 902 472 r Stop;
#X obj 442 63 routeOSC /delay;
#X obj 549 64 routeOSC /flanger;
#X obj 675 65 routeOSC /wah;
#N canvas 2449 55 1006 933 flanger 0;
#X obj 165 539 env~;
#X obj 165 561 dbtorms;
#X obj 168 584 hsl 100 15 0 1 0 0 empty empty empty -2 -8 0 10 -262144
-1 -1 1468 1;
#X text 256 618 Frequency range;
#X text 179 667 Offset;
#X obj 134 666 +~ 200;
#X obj 591 672 loadbang;
#X text 588 625 Start Values;
#N canvas 254 250 787 504 Sin 0;
#X obj 55 323 outlet~;
#X obj 91 210 inlet;
#X obj 52 254 spigot~;
#X obj 52 45 inlet;
#X obj 52 87 osc~ 2;
#X obj 52 127 +~ 1;
#X obj 52 167 *~ 0.5;
#X connect 1 0 2 1;
#X connect 2 1 0 0;
#X connect 3 0 4 0;
#X connect 4 0 5 0;
#X connect 5 0 6 0;
#X connect 6 0 2 0;
#X restore 223 484 pd Sin;
#X obj 134 509 *~ 1;
#N canvas 663 154 1115 709 Tri 0;
#N canvas 0 0 450 300 (subpatch) 0;
#X array triangle 100 float 0;
#X coords 0 1 100 -1 200 100 1 0 0;
#X restore 36 38 graph;
#X obj -218 484 outlet~;
#X obj -119 288 metro 500;
#X obj -54 273 bng 15 250 50 0 empty empty empty 17 7 0 10 -262144
-1 -1;
#X text -288 224 Amplitude;
#X text -307 96 Sägezahn 0 1;
#X obj -145 163 *~ -1;
#X text -94 159 Spiegeln X;
#X text -92 187 Verschieben in Y;
#X obj -145 191 +~ 0.5;
#X obj -221 58 inlet;
#X obj -182 371 inlet;
#X obj -220 225 *~ 2;
#X obj -119 317 tabwrite~ triangle;
#X floatatom -309 43 5 0 0 0 - - -;
#X text 35 151 phasor Erzeugt eine Sägezahn förmige Welle (0.0001
.....1) wenn 1 errteicht wird => fängt der Generator wieder von vorne
an.;
#X text 34 203 Expression (expr~ $v1>0.5) returns 1 wenn die Rampenwerte
>= 0.5 returns 0 wenn die Werte < 0.5;
#X text 35 247 durch [*~ 2] und [-~ 1] wird das signal im Bereich -1
1 oscillieren;
#X obj -221 415 spigot~;
#X obj -220 132 min~ 0.5;
#X obj -146 132 max~ 0.5;
#X obj -220 96 phasor~ 2;
#X connect 2 0 13 0;
#X connect 3 0 2 0;
#X connect 6 0 9 0;
#X connect 9 0 12 0;
#X connect 10 0 21 0;
#X connect 11 0 18 1;
#X connect 12 0 13 0;
#X connect 12 0 18 0;
#X connect 14 0 21 0;
#X connect 18 1 1 0;
#X connect 19 0 12 0;
#X connect 20 0 6 0;
#X connect 21 0 19 0;
#X connect 21 0 20 0;
#X restore 134 449 pd Tri;
#X obj 134 644 *~;
#X obj 123 741 vcf~;
#X obj 82 355 spigot~;
#X msg 391 689 1;
#X obj 123 804 *~;
#X obj 268 376 r brain;
#X obj 591 645 bng 15 250 50 0 empty empty empty 17 7 0 10 -262144
-1 -1;
#X obj 83 292 inlet~;
#X obj 103 322 *~ 4;
#X msg 591 709 1000;
#X msg 724 690 9.6;
#X obj 131 179 knob 32 32 0 5 0 0 Flanger_Velocity bang_Flanger_Velocity
Velocity 0 -8 0 8 -1 -1 -1 99 1;
#X obj 201 175 knob 32 32 1000 1500 0 0 Flanger_Range bang_Flanger_Range
Range 0 -8 0 8 -1 -1 -1 0 1;
#X obj 257 176 knob 32 32 0 20 0 0 Flanger_Q bang_Flanger_Q Q 10 -7
0 10 -1 -1 -1 1488 1;
#X obj 314 174 knob 32 32 1 8 0 0 Flanger_Volume Bang_Flanger_Volume
Volume 0 -7 0 10 -1 -1 -1 487 1;
#X obj 637 79 moses 1;
#X msg 676 132 0;
#X obj 529 82 moses 1;
#X msg 568 135 0;
#X obj 341 69 inlet enableWah;
#X obj 335 109 tgl 15 0 Flanger_OnOff empty ON/Off -10 22 0 10 -262144
-1 -1 1 1;
#X obj 247 261 tgl 15 0 Flanger_Sine bang_Flanger_Sine Sin 0 -5 0 10
-262144 -1 -1 1 1;
#X obj 184 261 tgl 15 0 Flanger_Triangle bang_Flanger_Triangle Tri
0 -5 0 10 -262144 -1 -1 0 1;
#X floatatom 205 228 5 0 0 0 - - -;
#X floatatom 267 228 5 0 0 0 - - -;
#X floatatom 326 227 5 0 0 0 - - -;
#X floatatom 136 227 5 0 0 0 - - -;
#X obj 569 199 s bang_Falanger_Triangle;
#X obj 676 177 s bang_Falanger_Sine;
#X obj 529 37 r Flanger_Sine;
#X obj 637 37 r Flanger_Triangle;
#X obj 283 762 s Bang_Flanger_Volume;
#X obj 391 739 s bang_Flanger_Sine;
#X obj 591 743 s bang_Flanger_Range;
#X obj 522 766 s bang_Flanger_Velocity;
#X obj 725 740 s bang_Flanger_Q;
#X obj 134 386 r Flanger_Velocity;
#X obj 256 455 r Flanger_Sine;
#X obj 167 420 r Flanger_Triangle;
#X obj 149 619 r Flanger_Range;
#X obj 144 710 r Flanger_Q;
#X obj 138 779 r Flanger_Volume;
#X obj 193 338 r Flanger_OnOff;
#X msg 522 689 0.16;
#X obj 163 826 *~ 1.5;
#X obj 118 918 outlet~;
#X obj 128 861 *~ 0.9;
#X msg 283 689 2.1;
#X obj 131 60 inlet BCI;
#X obj 131 89 / 1000;
#X obj 118 894 *~ 0.4;
#X obj 132 128 + 0.1;
#X obj 193 104 + 1000;
#X connect 0 0 1 0;
#X connect 1 0 2 0;
#X connect 5 0 12 1;
#X connect 6 0 54 0;
#X connect 6 0 20 0;
#X connect 6 0 21 0;
#X connect 6 0 14 0;
#X connect 6 0 58 0;
#X connect 8 0 9 0;
#X connect 9 0 0 0;
#X connect 9 0 11 0;
#X connect 10 0 9 0;
#X connect 11 0 5 0;
#X connect 12 0 15 0;
#X connect 13 1 12 0;
#X connect 14 0 43 0;
#X connect 15 0 55 0;
#X connect 17 0 6 0;
#X connect 18 0 13 0;
#X connect 18 0 19 0;
#X connect 18 0 57 0;
#X connect 18 0 61 0;
#X connect 19 0 13 0;
#X connect 20 0 44 0;
#X connect 21 0 46 0;
#X connect 22 0 37 0;
#X connect 23 0 34 0;
#X connect 24 0 35 0;
#X connect 25 0 36 0;
#X connect 26 1 27 0;
#X connect 27 0 39 0;
#X connect 28 1 29 0;
#X connect 29 0 38 0;
#X connect 30 0 31 0;
#X connect 40 0 28 0;
#X connect 41 0 26 0;
#X connect 47 0 10 0;
#X connect 47 0 8 0;
#X connect 48 0 8 1;
#X connect 49 0 10 1;
#X connect 50 0 11 1;
#X connect 51 0 12 2;
#X connect 52 0 15 1;
#X connect 53 0 13 1;
#X connect 54 0 45 0;
#X connect 55 0 57 0;
#X connect 57 0 61 0;
#X connect 58 0 42 0;
#X connect 59 0 60 0;
#X connect 59 0 63 0;
#X connect 60 0 62 0;
#X connect 61 0 56 0;
#X connect 62 0 22 0;
#X connect 63 0 23 0;
#X restore 544 572 pd flanger;
#X obj 601 544 r EN_Flanger;
#X floatatom 442 93 5 0 0 0 - - -;
#X floatatom 549 92 5 0 0 0 - - -;
#X floatatom 675 93 5 0 0 0 - - -;
#X msg 30 65 \; pd dsp \$1;
#X obj 30 37 tgl 15 0 empty empty empty 17 7 0 10 -262144 -1 -1 1 1
;
#X obj 29 -24 loadbang;
#X msg 29 9 1;
#X msg 845 446 open SWA.wav;
#X floatatom 176 90 5 0 0 0 - - -;
#X obj 176 115 s meditation;
#X obj 176 64 routeOSC /meditaion;
#X obj 527 -61 import mrpeach;
#X obj 590 522 r meditation;
#N canvas 2242 264 834 743 clean 0;
#X obj 102 134 inlet~;
#X obj 22 679 outlet~;
#X obj 117 421 *~;
#X obj 267 106 vsl 15 128 0 10 0 0 empty empty empty 0 -9 0 10 -262144
-1 -1 6350 1;
#X obj 269 39 loadbang;
#X obj 196 55 bng 15 250 50 0 empty empty empty 17 7 0 10 -262144 -1
-1;
#X obj 58 468 freeverb~;
#X obj 60 420 *~;
#X msg 249 267 \$1 50;
#X obj 261 300 line;
#X msg 289 383 wet \$1;
#X msg 293 427 dry \$1;
#X msg 296 492 roomsize \$1;
#X obj 329 348 hsl 128 15 0 1 0 0 empty empty empty -2 -8 0 10 -262144
-1 -1 8090 1;
#X obj 342 400 hsl 128 15 0 1 0 0 empty empty empty -2 -8 0 10 -262144
-1 -1 10795 1;
#X obj 363 464 hsl 128 15 0 1 0 0 empty empty empty -2 -8 0 10 -262144
-1 -1 6591 1;
#X floatatom 276 353 5 0 0 0 - - -;
#X floatatom 379 522 5 0 0 0 - - -;
#X floatatom 353 434 5 0 0 0 - - -;
#X msg 522 260 0.637;
#X msg 566 314 0.85;
#X msg 541 421 0.519;
#X obj 126 654 outlet~;
#X obj 198 545 delwrite~ left 4000;
#X obj 227 584 delwrite~ right 4000;
#X obj -50 606 delread~ right 20;
#X obj -5 569 delread~ left 5;
#X obj 32 646 *~ 20;
#X msg 281 68 5;
#X connect 0 0 2 0;
#X connect 0 0 7 0;
#X connect 2 0 22 0;
#X connect 3 0 8 0;
#X connect 4 0 28 0;
#X connect 4 0 19 0;
#X connect 4 0 20 0;
#X connect 4 0 21 0;
#X connect 5 0 4 0;
#X connect 6 0 24 0;
#X connect 6 1 23 0;
#X connect 7 0 1 0;
#X connect 8 0 9 0;
#X connect 9 0 2 1;
#X connect 9 0 7 1;
#X connect 10 0 6 0;
#X connect 11 0 6 0;
#X connect 12 0 6 0;
#X connect 13 0 10 0;
#X connect 13 0 16 0;
#X connect 14 0 11 0;
#X connect 14 0 18 0;
#X connect 15 0 12 0;
#X connect 15 0 17 0;
#X connect 19 0 13 0;
#X connect 20 0 14 0;
#X connect 21 0 15 0;
#X connect 25 0 27 0;
#X connect 25 0 1 0;
#X connect 26 0 22 0;
#X connect 28 0 3 0;
#X restore 409 241 pd clean;
#X obj 409 196 spigot~;
#X msg 754 113 1;
#X obj 754 146 s disto;
#X obj 491 179 r disto;
#X obj 948 147 s disto;
#X msg 948 114 0;
#X msg 887 622 0.267;
#X obj 734 90 loadbang;
#X connect 0 0 25 1;
#X connect 0 1 25 0;
#X connect 1 0 2 0;
#X connect 1 1 0 0;
#X connect 2 0 26 0;
#X connect 2 1 51 0;
#X connect 3 0 1 0;
#X connect 3 1 4 0;
#X connect 4 0 26 0;
#X connect 5 0 4 1;
#X connect 6 0 3 0;
#X connect 7 0 11 0;
#X connect 7 0 12 0;
#X connect 7 0 13 0;
#X connect 7 0 48 0;
#X connect 7 0 49 0;
#X connect 7 0 50 0;
#X connect 7 0 63 0;
#X connect 8 0 7 0;
#X connect 11 0 14 0;
#X connect 11 0 68 0;
#X connect 12 0 15 0;
#X connect 13 0 16 0;
#X connect 14 0 45 0;
#X connect 16 0 17 0;
#X connect 21 0 3 1;
#X connect 22 0 2 1;
#X connect 23 0 1 1;
#X connect 24 0 67 0;
#X connect 26 0 25 0;
#X connect 26 0 25 1;
#X connect 27 0 28 0;
#X connect 27 0 26 1;
#X connect 29 0 31 0;
#X connect 30 0 29 0;
#X connect 31 0 27 0;
#X connect 32 0 4 2;
#X connect 33 0 39 0;
#X connect 34 0 33 0;
#X connect 35 0 33 0;
#X connect 36 0 34 0;
#X connect 36 1 60 0;
#X connect 37 0 36 0;
#X connect 38 0 35 0;
#X connect 39 0 25 0;
#X connect 39 0 25 1;
#X connect 40 0 39 1;
#X connect 40 0 41 0;
#X connect 42 0 73 0;
#X connect 43 0 42 0;
#X connect 46 0 37 0;
#X connect 47 0 38 0;
#X connect 48 0 53 0;
#X connect 49 0 54 0;
#X connect 50 0 55 0;
#X connect 51 0 26 0;
#X connect 52 0 51 2;
#X connect 53 0 20 0;
#X connect 54 0 19 0;
#X connect 55 0 18 0;
#X connect 57 0 56 0;
#X connect 58 0 59 0;
#X connect 59 0 57 0;
#X connect 60 0 33 0;
#X connect 61 0 62 0;
#X connect 63 0 61 0;
#X connect 65 0 51 1;
#X connect 66 0 3 0;
#X connect 67 0 66 0;
#X connect 67 1 6 0;
#X connect 68 0 69 0;
#X connect 70 0 67 1;
#X connect 72 0 71 0;
#X connect 73 0 40 0;
#X connect 74 0 68 0;
